<?xml version="1.0" encoding="UTF-8" standalone="no"?>
<!-- Created with Inkscape (http://www.inkscape.org/) -->

<svg
   xmlns:dc="http://purl.org/dc/elements/1.1/"
   xmlns:cc="http://creativecommons.org/ns#"
   xmlns:rdf="http://www.w3.org/1999/02/22-rdf-syntax-ns#"
   xmlns:svg="http://www.w3.org/2000/svg"
   xmlns="http://www.w3.org/2000/svg"
   xmlns:xlink="http://www.w3.org/1999/xlink"
   xmlns:sodipodi="http://sodipodi.sourceforge.net/DTD/sodipodi-0.dtd"
   xmlns:inkscape="http://www.inkscape.org/namespaces/inkscape"
   width="32"
   height="32"
   id="svg3344"
   version="1.1"
   inkscape:version="0.91 r13725"
   viewBox="0 0 32 32"
   sodipodi:docname="configIcon.svg"
   enable-background="new">
  <defs
     id="defs3346">
    <pattern
       y="0"
       x="0"
       height="6"
       width="6"
       patternUnits="userSpaceOnUse"
       id="EMFhbasepattern" />
    <filter
       inkscape:label="Cubes"
       inkscape:menu="Scatter"
       inkscape:menu-tooltip="Scattered cubes; adjust the Morphology primitive to vary size"
       style="color-interpolation-filters:sRGB;"
       id="filter3673">
      <feTurbulence
         baseFrequency="0.14"
         numOctaves="1"
         type="fractalNoise"
         id="feTurbulence3675" />
      <feColorMatrix
         values="1 0 0 0 0 0 1 0 0 0 0 0 1 0 0 0 0 0 6 -3.5 "
         result="result5"
         id="feColorMatrix3677" />
      <feComposite
         in2="result5"
         operator="in"
         in="SourceGraphic"
         result="result6"
         id="feComposite3679" />
      <feMorphology
         result="result3"
         radius="5"
         operator="dilate"
         in="result6"
         id="feMorphology3681" />
      <feDisplacementMap
         result="result4"
         scale="0"
         yChannelSelector="A"
         xChannelSelector="R"
         in="result3"
         in2="result3"
         id="feDisplacementMap3683" />
      <feComposite
         in2="result4"
         operator="arithmetic"
         result="result2"
         k1="1"
         k3="1"
         id="feComposite3685" />
      <feBlend
         mode="darken"
         in="result2"
         in2="result2"
         id="feBlend3687" />
      <feConvolveMatrix
         order="3 3"
         kernelMatrix="2 0 0 0 1 0 0 0 -1 "
         targetX="1"
         targetY="1"
         divisor="2"
         edgeMode="duplicate"
         id="feConvolveMatrix3689" />
    </filter>
    <filter
       inkscape:label="Swirl"
       inkscape:menu="Distort"
       inkscape:menu-tooltip="Paint objects with a transparent turbulence which wraps around color edges"
       height="1.4"
       y="-0.2"
       width="1.4"
       x="-0.2"
       style="color-interpolation-filters:sRGB;"
       id="filter3971">
      <feGaussianBlur
         stdDeviation="3"
         result="result10"
         id="feGaussianBlur3973" />
      <feBlend
         in2="result10"
         mode="normal"
         in="result10"
         result="fbSourceGraphic"
         id="feBlend3975" />
      <feGaussianBlur
         stdDeviation="3"
         result="result8"
         in="fbSourceGraphic"
         id="feGaussianBlur3977" />
      <feTurbulence
         seed="0"
         result="result7"
         type="fractalNoise"
         numOctaves="1"
         baseFrequency="0.2"
         id="feTurbulence3979" />
      <feComposite
         in2="result8"
         result="result6"
         operator="in"
         in="result8"
         id="feComposite3981" />
      <feDisplacementMap
         in2="result6"
         in="result7"
         xChannelSelector="R"
         yChannelSelector="G"
         scale="50"
         result="result4"
         id="feDisplacementMap3983" />
      <feComposite
         in2="result4"
         result="result2"
         operator="arithmetic"
         in="result8"
         k1="1"
         k3="1"
         id="feComposite3985" />
      <feComposite
         in2="result2"
         result="fbSourceGraphic"
         in="fbSourceGraphic"
         operator="in"
         id="feComposite3987" />
      <feDisplacementMap
         in2="result4"
         yChannelSelector="G"
         scale="50"
         xChannelSelector="R"
         id="feDisplacementMap3989" />
    </filter>
  </defs>
  <sodipodi:namedview
     id="base"
     pagecolor="#ffffff"
     bordercolor="#666666"
     borderopacity="1.0"
     inkscape:pageopacity="0.0"
     inkscape:pageshadow="2"
     inkscape:zoom="11.197802"
     inkscape:cx="-0.47693931"
     inkscape:cy="13.475658"
     inkscape:current-layer="layer1"
     showgrid="true"
     inkscape:grid-bbox="true"
     inkscape:document-units="px"
     inkscape:window-width="1366"
     inkscape:window-height="706"
     inkscape:window-x="-8"
     inkscape:window-y="-8"
     inkscape:window-maximized="1"
     showguides="false" />
  <metadata
     id="metadata3349">
    <rdf:RDF>
      <cc:Work
         rdf:about="">
        <dc:format>image/svg+xml</dc:format>
        <dc:type
           rdf:resource="http://purl.org/dc/dcmitype/StillImage" />
        <dc:title />
      </cc:Work>
    </rdf:RDF>
  </metadata>
  <g
     inkscape:groupmode="layer"
     id="layer2"
     inkscape:label="Layer 2"
     style="display:inline;opacity:1">
    <circle
       style="display:inline;fill:#efeff4;fill-opacity:1;stroke:none;stroke-opacity:1"
       id="path3342"
       r="15.226203"
       cy="11.973062"
       cx="19.144119"
       transform="matrix(0.97398328,0.22661986,-0.22661986,0.97398328,0,0)" />
  </g>
  <g
     inkscape:groupmode="layer"
     id="layer6"
     inkscape:label="Layer 5"
     style="display:inline">
    <path
       sodipodi:type="star"
       style="display:inline;opacity:1;fill:#009688;fill-opacity:1;stroke:none;stroke-opacity:1"
       id="path3369"
       sodipodi:sides="10"
       sodipodi:cx="16.074583"
       sodipodi:cy="16.014721"
       sodipodi:r1="9.0320015"
       sodipodi:r2="13.089857"
       sodipodi:arg1="0.732308"
       sodipodi:arg2="1.0464673"
       inkscape:flatsided="false"
       inkscape:rounded="0.65"
       inkscape:randomized="0"
       d="m 22.79108,22.053406 c -2.301199,2.559496 2.816206,3.569565 -0.163292,5.292681 -2.979497,1.723116 -1.302752,-3.216174 -4.668895,-2.498109 -3.366143,0.718065 0.180221,4.543163 -3.243066,4.185888 -3.423286,-0.357274 0.836471,-3.367679 -2.308863,-4.765321 C 9.2616288,22.870903 9.8823612,28.049972 7.322865,25.748774 4.763369,23.447576 9.9790563,23.51593 8.2559404,20.536433 6.5328243,17.556935 3.990827,22.111747 3.2727616,18.745605 2.5546962,15.379462 6.7340981,18.500466 7.0913727,15.07718 7.4486474,11.653893 2.7148769,13.844665 4.1125188,10.69933 5.5101606,7.5539956 7.0568878,12.535532 9.3580861,9.9760356 11.659285,7.4165395 6.5418804,6.4064708 9.521378,4.6833546 c 2.979497,-1.723116 1.302753,3.2161747 4.668895,2.4981095 3.366143,-0.7180654 -0.180221,-4.5431629 3.243066,-4.1858884 3.423286,0.3572745 -0.836471,3.3676787 2.308863,4.7653207 3.145335,1.397642 2.524603,-3.781427 5.084099,-1.4802286 2.559496,2.3011982 -2.656191,2.2328439 -0.933075,5.2123412 1.723116,2.979498 4.265113,-1.5753145 4.983179,1.790828 0.718065,3.366143 -3.461337,0.245139 -3.818612,3.668425 -0.357274,3.423287 4.376496,1.232515 2.978854,4.37785 -1.397642,3.145334 -2.944369,-1.836202 -5.245567,0.723294 z" />
    <use
       id="use3398"
       xlink:href="#path3369"
       x="0"
       y="0"
       width="100%"
       height="100%"
       transform="translate(0.03062086,-0.11547744)" />
  </g>
  <g
     inkscape:groupmode="layer"
     id="layer1"
     inkscape:label="Layer 3"
     style="display:inline;">
    <path
       sodipodi:type="star"
       style="fill:#00d4c7;fill-opacity:1;stroke:none;stroke-opacity:1"
       id="path3448"
       sodipodi:sides="10"
       sodipodi:cx="15.939069"
       sodipodi:cy="16.061106"
       sodipodi:r1="2.6509016"
       sodipodi:r2="3.8983846"
       sodipodi:arg1="0.74837805"
       sodipodi:arg2="1.0625373"
       inkscape:flatsided="false"
       inkscape:rounded="-4.23"
       inkscape:randomized="0"
       d="m 17.881632,17.864915 c 4.612304,-4.967097 -5.966866,4.900502 -0.04539,1.601793 5.92148,-3.29871 -8.0368805,0.502941 -1.385862,-0.80448 6.651019,-1.307422 -7.7077387,0.457354 -0.978229,1.2692 6.729511,0.811846 -6.7975946,-4.317072 -0.648324,-1.465427 6.14927,2.851644 -6.5045179,-4.160489 -1.537421,0.451816 4.967097,4.612304 -2.961859,-7.488111 0.33685,-1.566631 3.29871,5.921479 -2.816791,-7.189166 -1.50937,-0.538147 1.307422,6.651019 2.005207,-7.7989454 1.193361,-1.069435 -0.811846,6.72951 1.946853,-7.4718257 -0.904792,-1.322556 -2.8516444,6.149271 6.206352,-5.1308481 1.594047,-0.163751 -4.6123036,4.967097 5.966867,-4.9005024 0.04539,-1.601793 -5.9214791,3.298709 8.036881,-0.502942 1.385862,0.80448 -6.6510183,1.307421 7.707739,-0.457354 0.978229,-1.2692 -6.7295099,-0.811847 6.797595,4.317071 0.648325,1.465427 -6.14927,-2.851645 6.504518,4.160488 1.537421,-0.451816 -4.967097,-4.6123044 2.961859,7.48811 -0.336851,1.566631 -3.298709,-5.9214794 2.816792,7.189165 1.50937,0.538147 -1.307421,-6.6510193 -2.005206,7.798945 -1.19336,1.069435 0.811846,-6.7295103 -1.946853,7.471825 0.904791,1.322555 2.851645,-6.14927 -6.206351,5.130849 -1.594047,0.163752 z" />
  </g>
  <g
     inkscape:groupmode="layer"
     id="layer3"
     inkscape:label="Layer 4"
     style="display:inline" />
</svg>
